<svg xmlns="http://www.w3.org/2000/svg" xmlns:xlink="http://www.w3.org/1999/xlink" viewBox="0 0 286.96 233.62"><defs><style>.cls-1{fill:url(#linear-gradient);}.cls-2{fill:url(#linear-gradient-2);}.cls-3{fill:url(#linear-gradient-3);}.cls-4{fill:url(#linear-gradient-4);}.cls-5{fill:url(#linear-gradient-5);}.cls-6{fill:url(#linear-gradient-6);}.cls-7{fill:none;stroke-miterlimit:10;stroke-width:6px;stroke:url(#linear-gradient-7);}</style><linearGradient id="linear-gradient" x1="138.68" y1="230.98" x2="231.85" y2="69.6" gradientUnits="userSpaceOnUse"><stop offset="0.01" stop-color="#c9b4bc"/><stop offset="1" stop-color="#fde3de"/></linearGradient><linearGradient id="linear-gradient-2" x1="4.57" y1="168.91" x2="154.03" y2="168.91" gradientUnits="userSpaceOnUse"><stop offset="0.01" stop-color="#b2bec8"/><stop offset="1" stop-color="#fffde9"/></linearGradient><linearGradient id="linear-gradient-3" x1="89.07" y1="230.3" x2="89.07" y2="149.85" xlink:href="#linear-gradient-2"/><linearGradient id="linear-gradient-4" x1="50.93" y1="213.34" x2="50.93" y2="107.53" gradientUnits="userSpaceOnUse"><stop offset="0.01" stop-color="#d1d3d9"/><stop offset="1" stop-color="#fff"/></linearGradient><linearGradient id="linear-gradient-5" x1="183.43" y1="78.33" x2="278.19" y2="78.33" gradientUnits="userSpaceOnUse"><stop offset="0.01" stop-color="#c3d1cc"/><stop offset="1" stop-color="#fffeee"/></linearGradient><linearGradient id="linear-gradient-6" x1="140.92" y1="127.03" x2="234.1" y2="127.03" gradientUnits="userSpaceOnUse"><stop offset="0.01" stop-color="#e5f1d6"/><stop offset="1" stop-color="#fde3de"/></linearGradient><linearGradient id="linear-gradient-7" x1="143.48" y1="233.62" x2="143.48" gradientUnits="userSpaceOnUse"><stop offset="0.01" stop-color="#352e30"/><stop offset="1" stop-color="#fde4e0"/></linearGradient></defs><title>Asset 2</title><g id="Layer_2" data-name="Layer 2"><g id="paper"><path class="cls-1" d="M206.35,54.87l-76.06,81.49a8.21,8.21,0,0,1-9.68,1.74l-1.43-.71L132,227.13l17.27,3a8.21,8.21,0,0,0,6.78-1.85l114.22-97.9Z"/><path class="cls-2" d="M127.89,138.12a8.21,8.21,0,0,1-7.28,0L61.2,108.4a8.23,8.23,0,0,0-10.9,3.41l-44.72,82a8.22,8.22,0,0,0,5.79,12l137.9,24.33a8.24,8.24,0,0,0,4.76-.58Z"/><path class="cls-3" d="M151.05,230.29l-81.2-80.44L27.1,183.73l10.37,26.71,111.8,19.73A8.2,8.2,0,0,0,151.05,230.29Z"/><path class="cls-4" d="M97.3,126.45l-36.1-18a8.23,8.23,0,0,0-10.9,3.41l-44.72,82a8.22,8.22,0,0,0,5.79,12l42.49,7.5Z"/><path class="cls-5" d="M255.58,20.91a8.22,8.22,0,0,0-14-3.76L183.43,79.42l73.17,62.72,18.72-16A8.22,8.22,0,0,0,278,118Z"/><polygon class="cls-6" points="174.85 212.21 202.15 188.8 234.1 41.85 215.31 45.27 140.92 124.97 174.85 212.21"/><path class="cls-7" d="M283.63,123.17l-123,105.47a8.19,8.19,0,0,1-6.77,1.85L4.63,204.17l54-99,66.51,33.25a8.21,8.21,0,0,0,9.68-1.74L256.63,6.17Z"/></g></g></svg>