<svg xmlns="http://www.w3.org/2000/svg" xmlns:xlink="http://www.w3.org/1999/xlink" viewBox="0 0 165.57 162.43"><defs><style>.cls-1{fill:url(#linear-gradient);}.cls-2{fill:url(#linear-gradient-2);}.cls-3{fill:url(#linear-gradient-3);}.cls-4{fill:url(#linear-gradient-4);}.cls-5{fill:url(#linear-gradient-5);}.cls-6{fill:url(#linear-gradient-6);}.cls-7{fill:none;stroke-miterlimit:10;stroke-width:11px;stroke:url(#linear-gradient-7);}</style><linearGradient id="linear-gradient" x1="54.4" y1="156.88" x2="54.4" y2="75.83" gradientUnits="userSpaceOnUse"><stop offset="0" stop-color="#4c332c"/><stop offset="1" stop-color="#d5c5bb"/></linearGradient><linearGradient id="linear-gradient-2" x1="112.07" y1="120.69" x2="152.39" y2="50.86" gradientUnits="userSpaceOnUse"><stop offset="0" stop-color="#706368"/><stop offset="1" stop-color="#bec7c3"/></linearGradient><linearGradient id="linear-gradient-3" x1="68.73" y1="109.59" x2="121.08" y2="18.91" gradientUnits="userSpaceOnUse"><stop offset="0" stop-color="#756a64"/><stop offset="1" stop-color="#d3e2de"/></linearGradient><linearGradient id="linear-gradient-4" x1="104.44" y1="108.52" x2="51.9" y2="17.52" gradientUnits="userSpaceOnUse"><stop offset="0" stop-color="#b1a7a2"/><stop offset="1" stop-color="#ecf8fe"/></linearGradient><linearGradient id="linear-gradient-5" x1="88.44" y1="156.13" x2="125.61" y2="91.74" gradientUnits="userSpaceOnUse"><stop offset="0.01" stop-color="#5c504a"/><stop offset="1" stop-color="#a99a94"/></linearGradient><linearGradient id="linear-gradient-6" x1="46.13" y1="120.9" x2="46.13" y2="42" gradientUnits="userSpaceOnUse"><stop offset="0" stop-color="#a68e87"/><stop offset="1" stop-color="#ecf8fe"/></linearGradient><linearGradient id="linear-gradient-7" x1="82.78" y1="162.43" x2="82.78" gradientUnits="userSpaceOnUse"><stop offset="0" stop-color="#514a48"/><stop offset="1" stop-color="#fffde7"/></linearGradient></defs><title>Asset 1</title><g id="Layer_2" data-name="Layer 2"><g id="rock"><path class="cls-1" d="M96.74,90.5C95.33,82,84.87,102.88,76.29,102.88l-18-27L5.51,98.45a14.73,14.73,0,0,0,3.2,9.35l34.72,43.54a14.74,14.74,0,0,0,11.51,5.54h48.35V132a26.54,26.54,0,0,0-.36-4.36Z"/><path class="cls-2" d="M154.48,110.84a22.7,22.7,0,0,0,4.37-19.17l-9-39.34a7.94,7.94,0,0,0-9.66-5.93h0c-3.66.92-11.1-.2-17.47-.29a7.92,7.92,0,0,0-7.46,10.72l2,5.31a8,8,0,0,1-1.13,7.61c-3.88,5.09-9.63,12.22-12,18.08a8,8,0,0,0,1.87,8.7l13.35,12.79a8.58,8.58,0,0,1,2.2,3.47v.06h0c1,3.1,2.65,8.05,4.69,13.84A7.93,7.93,0,0,0,140,129Z"/><path class="cls-3" d="M147.31,39.49a14.75,14.75,0,0,0-8-10L89.17,5.34a14.74,14.74,0,0,0-12.77,0l-8,3.86a18.09,18.09,0,0,0-1.09,6.15l-18,69.53c0,10,17,27,27,27l27-9c7.82,0,19.67-15.62,22.14-23l.72-2.17a18.17,18.17,0,0,1,17.23-12.42h4.75a18.41,18.41,0,0,0,4.9-.68Z"/><path class="cls-4" d="M112.66,103.45c5.77,2.31-31.19-45.32-32-55.59a2.38,2.38,0,0,1,0-.65l8.35-40a2.54,2.54,0,0,0-2.64-3,14.38,14.38,0,0,0-5.67,1.42L31.68,29.25a17.21,17.21,0,0,0-9.32,11.69h0a2.52,2.52,0,0,0,.33,1.93l43.5,67.85a2.5,2.5,0,0,0,2.62,1.11l42.32-8.46A2.74,2.74,0,0,1,112.66,103.45Z"/><path class="cls-5" d="M135.3,119.89l-9.36-23.38a18.5,18.5,0,0,0-17.17-11.63h-2c-7.56,0-18.71,11-21.52,18l-9,18c-.87,2.19,0,10.21,0,12.56v5a18.49,18.49,0,0,0,18.49,18.49h7a33.21,33.21,0,0,0,26-12.5l4.89-6.14A18.49,18.49,0,0,0,135.3,119.89Z"/><path class="cls-6" d="M56.78,65.94,18.06,42,5.87,95.4a14.66,14.66,0,0,0,2.6,12.1l67.82,13.38c8.11.46,13.09-11,9-18-7.12-12.24-24.33-34.42-27-36C57.78,66.58,57.27,66.28,56.78,65.94Z"/><path class="cls-7" d="M76.4,7,26.22,31.12a14.74,14.74,0,0,0-8,10L5.87,95.4a14.71,14.71,0,0,0,2.84,12.45l34.72,43.54a14.74,14.74,0,0,0,11.51,5.54h55.69a14.74,14.74,0,0,0,11.51-5.54l34.72-43.54A14.71,14.71,0,0,0,159.7,95.4L147.31,41.1a14.74,14.74,0,0,0-8-10L89.17,7A14.67,14.67,0,0,0,76.4,7Z"/></g></g></svg>