<svg xmlns="http://www.w3.org/2000/svg" xmlns:xlink="http://www.w3.org/1999/xlink" viewBox="0 0 341.17 241.3"><defs><style>.cls-1,.cls-8{stroke-miterlimit:10;}.cls-1{stroke-width:3px;fill:url(#linear-gradient);stroke:url(#linear-gradient-2);}.cls-2{fill:url(#linear-gradient-3);}.cls-3{fill:url(#linear-gradient-4);}.cls-4{fill:url(#linear-gradient-5);}.cls-5{fill:url(#linear-gradient-6);}.cls-6{opacity:0.74;fill:url(#linear-gradient-7);}.cls-7{opacity:0.78;fill:url(#linear-gradient-8);}.cls-8{fill:none;stroke-width:9px;stroke:url(#linear-gradient-9);}</style><linearGradient id="linear-gradient" x1="30.67" y1="151.78" x2="321.6" y2="151.78" gradientUnits="userSpaceOnUse"><stop offset="0" stop-color="#fff67e"/><stop offset="0.58" stop-color="#eabed1"/><stop offset="0.99" stop-color="#34404f"/></linearGradient><linearGradient id="linear-gradient-2" x1="26.29" y1="151.82" x2="323.1" y2="151.82" gradientUnits="userSpaceOnUse"><stop offset="0" stop-color="#54518a"/><stop offset="1" stop-color="#eabed1"/></linearGradient><linearGradient id="linear-gradient-3" x1="-13.65" y1="117.46" x2="348.23" y2="117.46" gradientTransform="translate(24.33 -21.39) rotate(9.9)" gradientUnits="userSpaceOnUse"><stop offset="0" stop-color="#3c3332"/><stop offset="0.78" stop-color="#cecfcc"/><stop offset="1" stop-color="#312a31"/></linearGradient><linearGradient id="linear-gradient-4" x1="-13.65" y1="73.92" x2="87.12" y2="73.92" gradientTransform="translate(24.33 -21.39) rotate(9.9)" gradientUnits="userSpaceOnUse"><stop offset="0" stop-color="#fffeee"/><stop offset="0.58" stop-color="#b4daec"/><stop offset="1" stop-color="#c7e5d1"/></linearGradient><linearGradient id="linear-gradient-5" x1="73.45" y1="106.72" x2="180.47" y2="106.72" gradientTransform="translate(24.33 -21.39) rotate(9.9)" gradientUnits="userSpaceOnUse"><stop offset="0" stop-color="#e1f4fd"/><stop offset="0.58" stop-color="#ffedde"/><stop offset="1" stop-color="#558290"/></linearGradient><linearGradient id="linear-gradient-6" x1="167.89" y1="137.5" x2="253.1" y2="137.5" gradientTransform="translate(24.33 -21.39) rotate(9.9)" gradientUnits="userSpaceOnUse"><stop offset="0" stop-color="#fffeee"/><stop offset="0.58" stop-color="#b4daec"/><stop offset="1" stop-color="#a39b97"/></linearGradient><linearGradient id="linear-gradient-7" x1="82.7" y1="125.96" x2="82.7" y2="57.92" gradientTransform="translate(24.33 -21.39) rotate(9.9)" gradientUnits="userSpaceOnUse"><stop offset="0" stop-color="#fffeee"/><stop offset="0.58" stop-color="#b4daec"/><stop offset="1" stop-color="#eddfd7"/></linearGradient><linearGradient id="linear-gradient-8" x1="164.86" y1="145.68" x2="200.96" y2="109.58" gradientTransform="translate(24.33 -21.39) rotate(9.9)" gradientUnits="userSpaceOnUse"><stop offset="0" stop-color="#93d1b1"/><stop offset="0.58" stop-color="#c3b8da"/><stop offset="1" stop-color="#eddfd7"/></linearGradient><linearGradient id="linear-gradient-9" x1="-20.29" y1="116.02" x2="352.73" y2="116.02" gradientTransform="translate(24.33 -21.39) rotate(9.9)" gradientUnits="userSpaceOnUse"><stop offset="0" stop-color="#464052"/><stop offset="1" stop-color="#eabed1"/></linearGradient></defs><title>Asset 4</title><g id="Layer_2" data-name="Layer 2"><g id="scissors"><path class="cls-1" d="M320.94,72.19c-4.1-12-26.1-10.93-49.13,2.45-18.16,10.54-31.53,25.57-34.37,37.35L30.67,231.78l48.69,7.94L253.1,129c9.16,0,21.21-3.62,33.55-10.79C309.69,104.81,325,84.22,320.94,72.19Zm-37.76,35.5c-17.21,10.82-33,14.52-35.33,8.28s9.78-20.08,27-30.89,33-14.52,35.33-8.28S300.38,96.87,283.18,107.69Z"/><path class="cls-2" d="M335.72,218.94c5.29-17.95-12.07-45.43-38.79-61.39-21.06-12.58-41.64-14.23-52-5.58L5.27,8.4l5.37,59.88L244.89,190.19c6.9,11.93,18.53,23.8,32.86,32.36C304.47,238.51,330.42,236.89,335.72,218.94ZM282.45,207C261.91,196,247.39,179.25,250,169.7s21.38-8.32,41.92,2.74,35.05,27.76,32.44,37.3S303,218.07,282.45,207Z"/><path class="cls-3" d="M97.11,68.11c.22-1.46.4-2.91.55-4.36L5.27,8.4l5.37,59.88,72,37.47A90.07,90.07,0,0,0,97.11,68.11Z"/><path class="cls-4" d="M183.63,115.25l-95-56.9a148.1,148.1,0,0,0-9.82,35.46c-.47,3.14-.85,6.27-1.13,9.36l95.19,49.54A147.28,147.28,0,0,0,183.63,115.25Z"/><path class="cls-5" d="M177.65,111.67a196,196,0,0,0-12.58,37l79.29,41.26c.21-1.25.42-2.49.61-3.75A243.37,243.37,0,0,0,247.75,150a20.25,20.25,0,0,0-2.83,1.95Z"/><polygon class="cls-6" points="80.11 104.43 114.19 122.17 100.61 65.52 65.77 44.64 80.11 104.43"/><polygon class="cls-7" points="157.69 144.81 222.38 178.47 210.74 131.5 144.56 91.85 157.69 144.81"/><path class="cls-8" d="M335.72,218.94c5.29-17.95-12.07-45.43-38.79-61.39-21.06-12.58-41.64-14.23-52-5.58L5.27,8.4l5.37,59.88L244.89,190.19c6.9,11.93,18.53,23.8,32.86,32.36C304.47,238.51,330.42,236.89,335.72,218.94ZM282.45,207C261.91,196,247.39,179.25,250,169.7s21.38-8.32,41.92,2.74,35.05,27.76,32.44,37.3S303,218.07,282.45,207Z"/></g></g></svg>